<svg xmlns="http://www.w3.org/2000/svg" width="40" height="40" viewBox="0 0 40 40">
  <g id="noun_virus_3364075" transform="translate(-0.529 -280.596)">
    <path id="Path_1268" data-name="Path 1268" d="M18.529,280.6a2,2,0,0,0,0,4v2.158a14.058,14.058,0,0,0-4.19,1.3.667.667,0,1,0,.589,1.2,12.667,12.667,0,0,1,4.27-1.228.683.683,0,0,0,.665-.783v-3.307a.667.667,0,0,0-.667-.667h-.667a.667.667,0,1,1,0-1.333h4a.667.667,0,1,1,0,1.333h-.667a.667.667,0,0,0-.667.667v3.294a.688.688,0,0,0,.646.78,12.666,12.666,0,0,1,6.7,2.79.667.667,0,0,0,.893-.044l2.41-2.41a.667.667,0,0,0,0-.943l-.471-.471a.667.667,0,0,1,.943-.943l2.828,2.828a.667.667,0,0,1-.943.943l-.471-.471a.667.667,0,0,0-.943,0l-2.41,2.41a.667.667,0,0,0-.046.893,12.666,12.666,0,0,1,2.789,6.743.667.667,0,0,0,.663.6H37.2a.667.667,0,0,0,.667-.667V298.6a.667.667,0,1,1,1.333,0v4a.667.667,0,0,1-1.333,0v-.667a.667.667,0,0,0-.667-.667H33.8a.667.667,0,0,0-.663.6,12.67,12.67,0,0,1-2.8,6.745.667.667,0,0,0,.044.893l2.41,2.41a.667.667,0,0,0,.943,0l.471-.471a.667.667,0,1,1,.943.943l-2.828,2.828a.667.667,0,0,1-.943-.943l.471-.471a.667.667,0,0,0,0-.943l-2.41-2.41a.667.667,0,1,0-.943.943l1.939,1.939a2,2,0,0,0,2.828,2.828l2.828-2.828a2,2,0,1,0-2.828-2.828l-1.522-1.525a14.147,14.147,0,0,0,2.654-6.375h2.141a2,2,0,1,0,4,0v-4a2,2,0,1,0-4,0H34.37a14.14,14.14,0,0,0-2.633-6.375l1.52-1.525a2,2,0,1,0,2.828-2.828l-2.828-2.828a2,2,0,0,0-2.828,2.828l-1.522,1.52a14.145,14.145,0,0,0-6.378-2.646V284.6a2,2,0,0,0,0-4Zm-9.314,3.862a2,2,0,0,0-1.414.582l-2.828,2.828A2,2,0,1,0,7.8,290.7l1.52,1.525A14.137,14.137,0,0,0,6.674,298.6H4.529a2,2,0,1,0-4,0v4a2,2,0,0,0,4,0h2.16a13.949,13.949,0,0,0,2.637,6.375L7.8,310.5a2,2,0,0,0-2.828,2.828L7.8,316.152a2,2,0,1,0,2.828-2.828l1.527-1.522a13.836,13.836,0,0,0,6.372,2.654V316.6a2,2,0,0,0,0,4h4a2,2,0,0,0,0-4v-2.159a14.059,14.059,0,0,0,4.223-1.313.667.667,0,1,0-.592-1.194,12.669,12.669,0,0,1-4.363,1.255.667.667,0,0,0-.6.663v3.414a.667.667,0,0,0,.667.667h.667a.667.667,0,0,1,0,1.333h-4a.667.667,0,0,1,0-1.333H19.2a.667.667,0,0,0,.667-.667v-3.4a.667.667,0,0,0-.6-.663,12.67,12.67,0,0,1-6.745-2.8.667.667,0,0,0-.893.044l-2.41,2.41a.667.667,0,0,0,0,.943l.471.471a.667.667,0,1,1-.943.943l-2.828-2.828a.667.667,0,0,1,.943-.943l.471.471a.667.667,0,0,0,.943,0l2.41-2.41a.667.667,0,0,0,.046-.893,12.666,12.666,0,0,1-2.789-6.744.667.667,0,0,0-.663-.6H3.862a.667.667,0,0,0-.667.667v.667a.651.651,0,0,1-.667.667.651.651,0,0,1-.667-.667v-4a.651.651,0,0,1,.667-.667.651.651,0,0,1,.667.667v.667a.667.667,0,0,0,.667.667h3.4a.667.667,0,0,0,.663-.6,12.669,12.669,0,0,1,2.8-6.745.667.667,0,0,0-.044-.893l-2.41-2.41a.667.667,0,0,0-.943,0l-.471.471a.667.667,0,0,1-.943-.943l2.828-2.828a.667.667,0,1,1,.943.943l-.471.471a.667.667,0,0,0,0,.943l2.41,2.41a.667.667,0,1,0,.943-.943l-1.939-1.939a2,2,0,0,0-1.414-3.41ZM20.529,290.6a.667.667,0,1,0,.667.667A.667.667,0,0,0,20.529,290.6Zm-4.665,1.335a4,4,0,1,0,4,4A4.01,4.01,0,0,0,15.864,291.931Zm0,1.333a2.667,2.667,0,1,1-2.667,2.667A2.658,2.658,0,0,1,15.864,293.264Zm9.331,0a2.667,2.667,0,1,0,2.668,2.667A2.677,2.677,0,0,0,25.195,293.264Zm0,1.333a1.334,1.334,0,1,1-1.333,1.333A1.323,1.323,0,0,1,25.195,294.6Zm-14,5.332a.667.667,0,1,0,.667.667.667.667,0,0,0-.667-.667Zm9.333,0a.667.667,0,1,0,.667.667.667.667,0,0,0-.667-.667Zm9.333,0a.667.667,0,1,0,.667.667.667.667,0,0,0-.667-.667Zm-4.668,1.331a4,4,0,1,0,4,4A4.012,4.012,0,0,0,25.195,301.26Zm-9.331,1.335a2.667,2.667,0,1,0,2.668,2.667A2.677,2.677,0,0,0,15.864,302.595Zm9.331,0a2.667,2.667,0,1,1-2.667,2.667A2.658,2.658,0,0,1,25.195,302.595Zm-9.331,1.333a1.333,1.333,0,1,1-1.333,1.333A1.324,1.324,0,0,1,15.864,303.928Zm4.665,5.335a.667.667,0,1,0,.667.667.667.667,0,0,0-.667-.667Z" transform="translate(0)" fill="#00acf2"/>
  </g>
</svg>
