<svg xmlns="http://www.w3.org/2000/svg" width="41.369" height="41.369" viewBox="0 0 41.369 41.369">
  <g id="noun_Plus_2268151" transform="translate(20.684 -0.173) rotate(45)">
    <path id="Path_1267" data-name="Path 1267" d="M14.6.122a1.877,1.877,0,0,0-1.9,1.9L12.8,12.8,2.027,12.693a1.877,1.877,0,0,0-1.9,1.9,1.973,1.973,0,0,0,1.944,1.944l10.777.111.111,10.777A1.973,1.973,0,0,0,14.9,29.374a1.877,1.877,0,0,0,1.9-1.9l-.111-10.777L27.47,16.8a1.877,1.877,0,0,0,1.9-1.9,1.973,1.973,0,0,0-1.944-1.944l-10.777-.111L16.542,2.067A1.973,1.973,0,0,0,14.6.122Z" transform="translate(0 0)" fill="#fff"/>
  </g>
</svg>
