<svg xmlns="http://www.w3.org/2000/svg" xmlns:xlink="http://www.w3.org/1999/xlink" width="40" height="40" viewBox="0 0 40 40">
  <defs>
    <clipPath id="clip-path">
      <rect id="Rectangle_2240" data-name="Rectangle 2240" width="40" height="40" fill="#fff" stroke="#707070" stroke-width="1"/>
    </clipPath>
  </defs>
  <g id="Mask_Group_1" data-name="Mask Group 1" clip-path="url(#clip-path)">
    <path id="Umi-Logo" d="M-14.044-6.869c0-9.129-5.206-13.14-7.431-15.006a18.507,18.507,0,0,0-8.308-4.4,10.72,10.72,0,0,0-5.532.5c-4.136,1.587-9.858,7.28-13.884,13.251v7.747a4.267,4.267,0,0,0,.194,1.365,2.507,2.507,0,0,0,.557.956,2.3,2.3,0,0,0,.869.568,3.207,3.207,0,0,0,1.131.189,3.152,3.152,0,0,0,1.136-.194,2.253,2.253,0,0,0,.848-.568,2.564,2.564,0,0,0,.537-.922,3.761,3.761,0,0,0,.189-1.242v-7.967a.3.3,0,0,1,.062-.184.435.435,0,0,1,.215-.133,2.238,2.238,0,0,1,.415-.081,5.912,5.912,0,0,1,.649-.033,5.67,5.67,0,0,1,.641.03,2.222,2.222,0,0,1,.4.081.435.435,0,0,1,.215.133.3.3,0,0,1,.062.184v7.939a6.214,6.214,0,0,1-.358,2.178A4.275,4.275,0,0,1-42.49-.844,4.584,4.584,0,0,1-44.209.168a7.326,7.326,0,0,1-2.352.348A7.456,7.456,0,0,1-48.8.2a4.342,4.342,0,0,1-1.675-.945,4.128,4.128,0,0,1-1.048-1.581,6.156,6.156,0,0,1-.363-2.214V-7.976a24.608,24.608,0,0,0-1.607,3.929c-1.325,4.424-.118,6.008,2.149,8.776,6.9,5.4,15.224,8.7,23.547,8.59,7.072-.1,11.2-5.3,13.038-11.721a30.746,30.746,0,0,0,.715-8.467m-10.04,6.8a.273.273,0,0,1-.061.18.445.445,0,0,1-.2.127,1.7,1.7,0,0,1-.39.078c-.163.016-.371.025-.623.025s-.47-.01-.633-.025a1.782,1.782,0,0,1-.4-.078.413.413,0,0,1-.2-.127.3.3,0,0,1-.056-.18v-5.41a3.806,3.806,0,0,0-.086-.839,2,2,0,0,0-.265-.649,1.273,1.273,0,0,0-.449-.419,1.342,1.342,0,0,0-.649-.147,1.535,1.535,0,0,0-.928.357,6.236,6.236,0,0,0-1.024,1.042V-.068a.279.279,0,0,1-.062.18.447.447,0,0,1-.21.127,1.772,1.772,0,0,1-.394.078c-.164.016-.369.025-.614.025s-.46-.01-.623-.025a1.76,1.76,0,0,1-.394-.078.437.437,0,0,1-.21-.127.284.284,0,0,1-.062-.18v-5.41a3.806,3.806,0,0,0-.086-.839,2.019,2.019,0,0,0-.265-.649,1.222,1.222,0,0,0-.446-.419,1.351,1.351,0,0,0-.645-.147,1.552,1.552,0,0,0-.941.357,6.078,6.078,0,0,0-1.013,1.042V-.067a.278.278,0,0,1-.061.18.442.442,0,0,1-.21.127,1.783,1.783,0,0,1-.394.078c-.164.016-.372.025-.625.025s-.46-.01-.623-.025a1.783,1.783,0,0,1-.394-.078.452.452,0,0,1-.21-.127.284.284,0,0,1-.062-.18V-9.189a.312.312,0,0,1,.052-.18.377.377,0,0,1,.184-.129,1.476,1.476,0,0,1,.343-.074,4.552,4.552,0,0,1,.527-.025,4.785,4.785,0,0,1,.541.025,1.245,1.245,0,0,1,.331.076.38.38,0,0,1,.169.129.319.319,0,0,1,.051.18v1.05a6.04,6.04,0,0,1,1.509-1.227,3.243,3.243,0,0,1,1.569-.41,4.048,4.048,0,0,1,1.013.118,2.95,2.95,0,0,1,.8.337,2.532,2.532,0,0,1,.609.53,3.076,3.076,0,0,1,.431.683,7.528,7.528,0,0,1,.8-.757,4.749,4.749,0,0,1,.778-.517,3.511,3.511,0,0,1,.767-.3,3.219,3.219,0,0,1,.78-.1,3.463,3.463,0,0,1,1.535.307,2.709,2.709,0,0,1,1.008.833A3.353,3.353,0,0,1-24.248-7.4a6.609,6.609,0,0,1,.163,1.493Zm5.065,0a.279.279,0,0,1-.062.18.442.442,0,0,1-.21.127,1.772,1.772,0,0,1-.394.078c-.164.016-.372.025-.623.025s-.46-.01-.623-.025a1.76,1.76,0,0,1-.394-.078.442.442,0,0,1-.21-.127.279.279,0,0,1-.062-.18v-9.1a.274.274,0,0,1,.062-.178.47.47,0,0,1,.21-.133,1.805,1.805,0,0,1,.394-.091,5.637,5.637,0,0,1,.623-.029,5.649,5.649,0,0,1,.623.029,1.819,1.819,0,0,1,.394.088.47.47,0,0,1,.21.133.274.274,0,0,1,.062.178ZM-19.143-11.2a1.746,1.746,0,0,1-1.177.3,1.746,1.746,0,0,1-1.17-.286,1.4,1.4,0,0,1-.3-1.034,1.483,1.483,0,0,1,.312-1.08,1.728,1.728,0,0,1,1.182-.3,1.717,1.717,0,0,1,1.165.292,1.4,1.4,0,0,1,.307,1.038,1.446,1.446,0,0,1-.317,1.074" transform="translate(54.043 26.554)" fill="#00acf2"/>
  </g>
</svg>
